{"asset":{"version":"2.0","generator":"THREE.GLTFExporter r175"},"scenes":[{"name":"AuxScene","nodes":[5]}],"scene":0,"nodes":[{"mesh":0},{"matrix":[0.34099061437834666,0,-0.3409906143783467,0,0,-0.482233551495792,0,0,0.3409906143783467,0,0.34099061437834666,0,0,0,0,1],"children":[0]},{"children":[1]},{"matrix":[1,0,0,0,0,1,0,0,0,0,1,0,-36.03731905463952,50.000000332353714,34.67335667842464,1],"children":[2]},{"children":[3]},{"children":[4]}],"bufferViews":[{"buffer":0,"byteOffset":0,"byteLength":46080,"target":34962,"byteStride":12},{"buffer":0,"byteOffset":46080,"byteLength":30720,"target":34962,"byteStride":8},{"buffer":0,"byteOffset":76800,"byteLength":46080,"target":34962,"byteStride":12}],"buffers":[{"byteLength":122880,"uri":"data:application/octet-stream;base64,"}],"accessors":[{"bufferView":0,"componentType":5126,"count":3840,"max":[208.37347412109375,208.37347412109375,25.600000381469727],"min":[-1.005068302154541,-1.005068302154541,-0.6000000238418579],"type":"VEC3"},{"bufferView":1,"componentType":5126,"count":3840,"max":[207.36839294433594,207.36839294433594],"min":[0,-24.600000381469727],"type":"VEC2"},{"bufferView":2,"componentType":5126,"count":3840,"max":[0.9949572086334229,0.9949572086334229,1],"min":[-0.9949572086334229,-0.9949572086334229,-1],"type":"VEC3"}],"materials":[{"pbrMetallicRoughness":{"baseColorFactor":[0.008023192982520563,0.26225065751888765,0.05612849004241121,1],"metallicFactor":0.14,"roughnessFactor":1},"doubleSided":true}],"meshes":[{"primitives":[{"mode":4,"attributes":{"POSITION":0,"TEXCOORD_0":1,"NORMAL":2},"material":0}]}]}