{"asset":{"version":"2.0","generator":"THREE.GLTFExporter r175"},"scenes":[{"name":"AuxScene","nodes":[5]}],"scene":0,"nodes":[{"mesh":0},{"matrix":[0.08840935592151929,0,-0.0884093559215193,0,0,-0.12502971018488268,0,0,0.0884093559215193,0,0.08840935592151929,0,0,0,0,1],"children":[0]},{"children":[1]},{"matrix":[1,0,0,0,0,1,0,0,0,0,1,0,-35.5318438296783,33.42832631924365,35.17820641653145,1],"children":[2]},{"children":[3]},{"children":[4]}],"bufferViews":[{"buffer":0,"byteOffset":0,"byteLength":1079424,"target":34962,"byteStride":12},{"buffer":0,"byteOffset":1079424,"byteLength":719616,"target":34962,"byteStride":8},{"buffer":0,"byteOffset":1799040,"byteLength":1079424,"target":34962,"byteStride":12}],"buffers":[{"byteLength":2878464,"uri":"data:application/octet-stream;base64,"}],"accessors":[{"bufferView":0,"componentType":5126,"count":89952,"max":[799.809814453125,534.7261962890625,66.5999984741211],"min":[-0.0003000000142492354,-1.4210854715202004e-14,-0.6000000238418579],"type":"VEC3"},{"bufferView":1,"componentType":5126,"count":89952,"max":[799.809814453125,534.7261962890625],"min":[-0.0003000000142492354,-65.5999984741211],"type":"VEC2"},{"bufferView":2,"componentType":5126,"count":89952,"max":[1,0.9999276399612427,1],"min":[-0.9999999403953552,-0.9999988079071045,-1],"type":"VEC3"}],"materials":[{"pbrMetallicRoughness":{"baseColorFactor":[0.006512090790025684,0.21952619971859377,0.04666508633021928,1],"metallicFactor":0,"roughnessFactor":1},"doubleSided":true}],"meshes":[{"primitives":[{"mode":4,"attributes":{"POSITION":0,"TEXCOORD_0":1,"NORMAL":2},"material":0}]}]}